# xmcd
# 
# Track frame offsets:
#     150
#     13560
#     30267
#     42135
#     59547
#     69552
#     83127
#     100390
#     111210
#     131350
#     145632
#     158155
#     171052
#     185150
#     196107
#     210692
#     222200
#     235570
#     252165
#     264965
# 
# Disc length: 3774
# 
# Revision: 3
# Processed by: cddbd v1.5.2PL0 Copyright (c) Steve Scherf et al.
# Submitted via: fre:ac v1.0.17
# 
DISCID=0a0ebc14
DTITLE=Charlie Rich - The Very Best Of Charlie Rich
DYEAR=1997
DGENRE=Country
TTITLE0=The Most Beautiful Girl
TTITLE1=Big Boss Man
TTITLE2=Rollin' With The Flow
TTITLE3=Life's Little Ups And Downs
TTITLE4=Mohair Sam
TTITLE5=Sittin' And Thinkin'
TTITLE6=My Elusive Dreams
TTITLE7=Lonely Weekends
TTITLE8=You Don't Know Me
TTITLE9=Mountain Dew
TTITLE10=Behind Closed Doors
TTITLE11=Take It On Home
TTITLE12=Break Up
TTITLE13=Their Won't Be Any More
TTITLE14=On My Knees
TTITLE15=Pass On By
TTITLE16=Good Time Charlie's Got The Blues
TTITLE17=Who Will The Next Fool Be
TTITLE18=C C Rider
TTITLE19=I Feel Like Going Home
EXTD=YEAR: 1997
EXTT0=
EXTT1=
EXTT2=
EXTT3=
EXTT4=
EXTT5=
EXTT6=
EXTT7=
EXTT8=
EXTT9=
EXTT10=
EXTT11=
EXTT12=
EXTT13=
EXTT14=
EXTT15=
EXTT16=
EXTT17=
EXTT18=
EXTT19=
PLAYORDER=
